/* XPM */
static char *dummy[]={
"32 32 146 2",
"aj c None",
"#5 c #04067c",
"#N c #040684",
"#j c #0c0a7c",
"#I c #0c0a84",
"#p c #0c0e7c",
"#c c #0c0e84",
"#F c #0c0e8c",
"#V c #14128c",
".Y c #141684",
"#4 c #14168c",
"#s c #1c1a8c",
".T c #1c1a94",
".X c #1c1e8c",
"#x c #1c1e94",
"ac c #1c229c",
"#g c #242294",
"#H c #24229c",
".l c #24269c",
"#u c #2c2a9c",
"af c #2c2aa4",
"#Q c #2c2ea4",
"#k c #2c32a4",
".m c #3432a4",
"#X c #3432ac",
".W c #3436ac",
"#y c #343aac",
"#K c #343ab4",
".F c #3c3aac",
"#S c #3c3ab4",
"#f c #3c3eac",
"#b c #3c3eb4",
"ae c #3c3ebc",
"#J c #3c42b4",
".S c #4442b4",
"#r c #4442bc",
".Z c #4446b4",
".4 c #4446bc",
".c c #444abc",
"#i c #4c4ab4",
"#m c #4c4abc",
".y c #4c4ac4",
".t c #4c4ebc",
".3 c #4c4ec4",
".A c #4c52c4",
".J c #5452c4",
"#A c #5452cc",
".s c #5456c4",
".x c #5456cc",
".d c #545acc",
"#n c #5c5acc",
"#a c #5c5ad4",
".K c #5c5ecc",
".E c #5c5ed4",
"#0 c #5c5edc",
"a# c #6462bc",
".R c #6462d4",
".Q c #6462dc",
"#z c #6466d4",
".B c #6466dc",
"a. c #646adc",
".a c #6c6adc",
"#M c #6c6ae4",
".L c #6c6ecc",
"#o c #6c6edc",
".b c #6c6ee4",
"#9 c #6c72e4",
".k c #7472e4",
"#e c #7472ec",
"#v c #7476dc",
".V c #7476e4",
".# c #7476ec",
"Qt c #747aec",
".N c #7c7ae4",
".D c #7c7aec",
"#R c #7c7af4",
".I c #7c7ee4",
".5 c #7c7eec",
".i c #7c7ef4",
"#Z c #7c82f4",
"#Y c #8482ec",
".j c #8482f4",
"#O c #8482fc",
".8 c #8486e4",
"#C c #8486ec",
".C c #8486f4",
"#q c #8486fc",
".2 c #848afc",
".9 c #8c8aec",
"#t c #8c8af4",
"#d c #8c8afc",
".O c #8c8ee4",
".n c #8c8eec",
"#B c #8c8ef4",
".H c #8c8efc",
"#l c #8c92fc",
"#w c #948efc",
".6 c #9492ec",
".h c #9492fc",
"#T c #9496ec",
".7 c #9496f4",
".w c #9496fc",
"ap c #949af4",
"#. c #9c9aec",
"ag c #9c9af4",
".U c #9c9afc",
"ak c #9c9ef4",
".u c #9c9efc",
".g c #9ca2fc",
".e c #a4a2fc",
".G c #a4a6fc",
"an c #a4aafc",
".r c #acaafc",
".v c #acaefc",
"ao c #acb2fc",
"#1 c #b4b2ec",
".f c #b4b2fc",
"#h c #b4b6fc",
"ai c #b4bafc",
".z c #bcbafc",
".1 c #bcbefc",
"ad c #bcc2fc",
"## c #c4befc",
".q c #c4c2fc",
".p c #c4c6fc",
"am c #c4cafc",
".o c #cccafc",
".M c #cccefc",
"al c #ccd2fc",
".P c #d4d2fc",
".0 c #d4d6fc",
"aa c #d4dafc",
"#D c #dcdafc",
"#6 c #dcdefc",
"#2 c #dce2fc",
"#7 c #e4e2fc",
"#L c #e4e6fc",
"#P c #e4eafc",
"#U c #eceafc",
"#G c #eceefc",
"ah c #ecf2fc",
"ab c #f4eefc",
"#E c #f4f2fc",
"#8 c #f4f6fc",
"#W c #fcfafc",
"#3 c #fcfefc",
"Qt.#.a.b.c.d.e.f.g.h.i.j.k.l.m.n.o.p.q.r.h.s.t.u.v.o.q.p.w.x.y.z",
".A.d.B.h.w.C.D.#.D.b.E.F.k.G.u.w.u.H.I.J.K.L.f.M.o.p.G.N.F.O.M.P",
".i.E.Q.R.E.B.a.S.T.k.U.H.D.V.j.H.a.W.X.J.P.o.q.q.v.H.Y.Z.M.0.q.1",
".U.H.2.k.E.3.4.W.W.5.6.7.w.C.a.S.l.8.z.f.f.v.e.9.t.S#..M.M.1##.1",
"#a.B.4#b#c.b.u.G#d#e.E.k.#.3#f.s.K.r.G.f.r.U.j#g.t.q.P.p#h.z.z.G",
".F.x.Q#a.4.E.E.B.k.b.R.F.l.J.w.f.f.e.r.w.5#i#j.I.q.p#h.1.z.f.U.u",
"#k.D.e.U#l.C.#.b.R#k#m.J.x#n.a.a.a.##o#m#p#g.s#q#o.b#d.9.r.h.h.w",
"#b.b.E.E.B.Q.b#r#s.T.D.U.U#d.H#t.#.K#u#f#v.e.e.w.h.C.5.J#t.U#w.5",
"#x.y.E.x#n#b#y#b.3.3#z.E.K.B.V.k.x#j#g.n#h.z.q.1.r.f.e.J#d.j.a.P",
"#r#A.3.J.d.4.3.x.E.3.s.x.B.E#b.l#s.3#z#B.w.w.w.h.I.H#q.x.x#C#D#E",
".E#b#c.S#n.x.x.B#a#a.x.b#n#y#F.W.C.w.H#l#q#d.i#q.y#q#q.x#n#G#D#E",
"#u#u.3.b.8.#.R.R.E.B.Q#y#H#I#J.w.v.p.o.v.r.u.HQt#K.i.x.8#G#L#G#G",
".E.C.h.w.w.#.R#M.a.J#x#N.T.F.d.#.#.#.j.2.w.H#O.##b.3.w#L#D#E#P#E",
".x.B.V.5.a.a.b.E#Q#c#x.4.x.E#n.B#M.b.b#r.3#O#R.i#S#T#L#U#U#G#L#E",
".m#u#r#b#V.R#b#I#I#S.x#n.E.b.b.#.#Qt.i.W#b#R.C#r.f#G#L#L#G#L#U#W",
"#x#H.T#X#c#u#I#u.B.##Y.u#Z.D.j.H#d.#.i.3#V#0.3#1#L#2#L#L#U#G#3#W",
"#c#u#4.T#c#V#5#Q.k.k.i.H#q.h.U.C.#.#.#.B.l.3.q#6#7#7#L#L#U#8#3#W",
"#M.W#X#Q#5#I#c#b.3#r#b#r.x.y.#.b.b.k#9.y#m.1#7#6#7#L#7#U#8#W#W#W",
"#h#d.D.B.T#V#x.y.y.4.F#Q#b#4#M.b.k.k#b.t.P#6#D#6#L#6#P#E#8#8#8#W",
"#D#7.P.z.U#Y.J.S.W.W.S#Q#k#x.E.ba.#Qa#.Maa#6#D#7#6#7#E#8#8#8#8#W",
".U.e.Mab#8.P.e.i.Q.4ac.l#H#H#A.a#4.8#2#D.0#D#L#6#6#E#E#E#E#8#8#W",
".0.o.z.v.1aa#U#6ad.w.#.xaeacaf.3ag.0#6#D#6#7#7#7#G#Eah#E#8#8#8#8",
".0.0.P#7.p.r.G.q#L#8#L#h.H.H.u.1#6#6aa#6#L#2#6#E#8#G#G#8#G#8#8.P",
".G.q.P.0#D#6.P.p.f#h.P#U#G#2aa.Paa#D#6#6#L#7#Eah#G#8#E#8ah#W#6.r",
".j.a#d.q.M.M.0#6#6#Dai.v#h#7#W#8#G.0#D#7#6#E#W#G#W#8#E#8#3#U.f.u",
"aj.v#B.5#Bak.qal.0.0#D#D.M.1.1.P#6.q.q#2#U#Gah#E#8#E#8#8#8.1.u.z",
"ajaj.q.f.e#t.R.C.z.P.P.P.P#L#6.p.1.p.P#6#7ah#G#E#E#E#8#W.P.w.faj",
"ajajajaj.p.z.r#B.D#Yak.1.P.P.0#D#D.0.o.P#L#U#G#Eah#E#G#7.u.Gamaj",
"ajajajajajaj.0.p.v.e#d.a.j#hal.Pal.P#D#D.P#7#Gah#G#E#G.v.h.zajaj",
"ajajajajajajajajaa.p#han.h.i.iag.z.M.P.M.M.1.o.P#6#7ad.h.fajajaj",
"ajajajajajajajajajajaj.0.1.r.u.j#M.iao.M.o.q#h.f.p.p.h.Gajajajaj",
"ajajajajajajajajajajajajaj.0.p#h.r#B.k.#.8.6agagap.H.Uajajajajaj"};
